<svg version="1.1" xmlns="http://www.w3.org/2000/svg">
  <defs>
    <symbol id="profile" viewBox="0 0 32 32">
      <title>profile</title>
      <path d="M15.947 17.865c4.729 0 8.565-3.836 8.565-8.565s-3.836-8.539-8.565-8.539-8.565 3.836-8.565 8.539 3.836 8.565 8.565 8.565zM15.947 2.995c3.468 0 6.305 2.837 6.305 6.305s-2.837 6.305-6.305 6.305-6.305-2.837-6.305-6.305 2.837-6.305 6.305-6.305z"></path>
      <path d="M1.13 31.238h29.741c0.631 0 1.13-0.499 1.13-1.13 0-5.911-4.808-10.745-10.745-10.745h-10.509c-5.911 0-10.745 4.808-10.745 10.745 0 0.631 0.499 1.13 1.13 1.13zM10.745 21.622h10.509c4.309 0 7.855 3.205 8.407 7.356h-27.323c0.552-4.125 4.099-7.356 8.407-7.356z"></path>
    </symbol>
    <symbol id="tasks" viewBox="0 0 32 32">
      <title>tasks</title>
      <path d="M25.373 4.192h-2.895v-1.298c0-0.416-0.459-0.605-0.875-0.605h-2.253c-0.532-1.531-1.866-2.289-3.383-2.289-0.039-0.002-0.085-0.003-0.131-0.003-1.493 0-2.765 0.944-3.251 2.268l-0.008 0.024h-2.209c-0.416 0-0.838 0.19-0.838 0.605v1.298h-2.894c-1.723 0.014-3.124 1.372-3.208 3.077l-0 0.008v21.829c0 1.677 1.531 2.894 3.208 2.894h18.738c1.677 0 3.201-1.218 3.201-2.895v-21.829c-0.084-1.712-1.485-3.070-3.207-3.084h-0.001zM11.046 3.813h2.1c0.365-0.044 0.656-0.321 0.722-0.685 0.219-0.984 1.086-1.692 2.092-1.713 1.009 0.032 1.842 0.749 2.053 1.699l0.003 0.014c0.073 0.372 0.386 0.656 0.766 0.685h2.173v3.040h-9.908v-3.040zM27.049 29.105c0 0.838-0.838 1.371-1.677 1.371h-18.738c-0.846 0-1.677-0.532-1.677-1.371v-21.829c0.073-0.875 0.802-1.546 1.677-1.56h2.887v1.939c0.038 0.411 0.381 0.73 0.799 0.73 0.014 0 0.028-0 0.042-0.001l-0.002 0h11.235c0.437 0.022 0.824-0.292 0.875-0.729v-1.939h2.902c0.875 0.015 1.597 0.693 1.677 1.56v21.829z"></path>
      <path d="M13.065 17.032c-0.284-0.306-0.758-0.321-1.064-0.044l-2.435 2.333-1.035-1.072c-0.284-0.299-0.758-0.321-1.064-0.036-0.292 0.306-0.292 0.795 0 1.101l1.56 1.604c0.139 0.146 0.335 0.233 0.54 0.219 0.197 0 0.386-0.073 0.532-0.219l2.967-2.822c0.142-0.133 0.231-0.322 0.231-0.532s-0.089-0.399-0.23-0.532l-0-0zM24.002 18.665h-8.764c-0.423 0-0.766 0.343-0.766 0.766s0.343 0.766 0.766 0.766v0h8.764c0.423 0 0.766-0.343 0.766-0.766s-0.343-0.766-0.766-0.766v0zM13.065 10.936c-0.284-0.306-0.758-0.321-1.064-0.036l-2.435 2.319-1.035-1.064c-0.284-0.299-0.758-0.321-1.064-0.036-0.292 0.306-0.292 0.795 0 1.101l1.56 1.604c0.139 0.146 0.335 0.233 0.54 0.226 0.197 0 0.386-0.088 0.532-0.226l2.967-2.822c0.142-0.133 0.231-0.322 0.231-0.532s-0.089-0.399-0.23-0.532l-0-0zM24.002 12.57h-8.764c-0.423 0-0.766 0.343-0.766 0.766s0.343 0.766 0.766 0.766v0h8.764c0.423 0 0.766-0.343 0.766-0.766s-0.343-0.766-0.766-0.766v0zM13.065 23.127c-0.284-0.306-0.758-0.321-1.064-0.044l-2.435 2.333-1.035-1.072c-0.284-0.306-0.758-0.321-1.064-0.036-0.292 0.306-0.292 0.795 0 1.101l1.56 1.604c0.139 0.146 0.335 0.233 0.54 0.219 0.197 0 0.386-0.073 0.532-0.219l2.967-2.822c0.142-0.133 0.231-0.322 0.231-0.532s-0.089-0.399-0.23-0.532l-0-0zM24.002 24.76h-8.764c-0.423 0-0.766 0.343-0.766 0.766s0.343 0.766 0.766 0.766v0h8.764c0.423 0 0.766-0.343 0.766-0.766s-0.343-0.766-0.766-0.766v0z"></path>
    </symbol>
    <symbol id="share" viewBox="0 0 32 32">
      <title>share</title>
      <path d="M25.346 20.577c-1.836 0.002-3.469 0.869-4.514 2.216l-0.010 0.013-8.776-4.902c0.2-0.559 0.316-1.205 0.316-1.878 0-0.68-0.118-1.332-0.335-1.937l0.013 0.040 8.769-4.895c1.053 1.371 2.693 2.247 4.537 2.247 3.151 0 5.705-2.554 5.705-5.705 0-0.004 0-0.008 0-0.012v0.001c0-0.014 0-0.030 0-0.047 0-3.158-2.56-5.718-5.718-5.718s-5.718 2.56-5.718 5.718c0 0.695 0.124 1.361 0.351 1.977l-0.013-0.040-8.763 4.895c-1.056-1.357-2.689-2.221-4.524-2.221-3.148 0-5.702 2.544-5.718 5.689v0.001c0.021 3.146 2.576 5.688 5.725 5.688 1.838 0 3.474-0.866 4.521-2.213l0.010-0.013 8.769 4.902c-0.214 0.574-0.338 1.238-0.338 1.93 0 3.14 2.545 5.685 5.685 5.685 0.011 0 0.023-0 0.034-0h-0.002c3.036-0.153 5.439-2.651 5.439-5.711 0-3.062-2.407-5.562-5.433-5.711l-0.013-0.001zM25.346 1.851c0.047-0.002 0.103-0.003 0.158-0.003 2.169 0 3.927 1.758 3.927 3.927s-1.758 3.927-3.927 3.927c-0.058 0-0.115-0.001-0.173-0.004l0.008 0c-2.097-0.091-3.762-1.813-3.762-3.923 0-2.113 1.669-3.837 3.761-3.923l0.008-0zM6.667 19.94c-0.047 0.002-0.103 0.003-0.158 0.003-2.169 0-3.927-1.758-3.927-3.927s1.758-3.927 3.927-3.927c0.058 0 0.115 0.001 0.173 0.004l-0.008-0c2.097 0.091 3.762 1.813 3.762 3.923 0 2.113-1.669 3.837-3.761 3.923l-0.008 0zM25.346 30.202c-0.047 0.002-0.103 0.003-0.158 0.003-2.169 0-3.927-1.758-3.927-3.927s1.758-3.927 3.927-3.927c0.058 0 0.115 0.001 0.173 0.004l-0.008-0c2.097 0.091 3.762 1.813 3.762 3.923 0 2.113-1.669 3.837-3.761 3.923l-0.008 0z"></path>
    </symbol>
    <symbol id="calendar" viewBox="0 0 32 32">
      <title>calendar</title>
      <path d="M30.522 1.874h-6.182v-0.931c0-0.521-0.422-0.943-0.943-0.943s-0.943 0.422-0.943 0.943v0 0.931h-5.51v-0.931c0-0.521-0.422-0.943-0.943-0.943s-0.943 0.422-0.943 0.943v0 0.931h-5.276v-0.931c0-0.521-0.422-0.943-0.943-0.943s-0.943 0.422-0.943 0.943v0 0.931h-6.416c-0.521 0-0.943 0.422-0.943 0.943v0 21.314c0 0.521 0.422 0.943 0.943 0.943v0h5.789c0.928 3.963 4.49 6.925 8.732 6.925s7.804-2.962 8.732-6.925h5.79c0.521 0 0.943-0.422 0.943-0.943v0-21.314c0-0.521-0.422-0.943-0.943-0.943v0zM7.894 3.761v0.852c0 0.521 0.422 0.943 0.943 0.943s0.943-0.422 0.943-0.943v0-0.852h5.276v0.852c0 0.521 0.422 0.943 0.943 0.943s0.943-0.422 0.943-0.943v0-0.852h5.51v0.852c0 0.521 0.422 0.943 0.943 0.943s0.943-0.422 0.943-0.943v0-0.852h5.238v3.857h-27.158v-3.857h5.471zM16 30.113c-3.905 0-7.083-3.176-7.083-7.083s3.176-7.083 7.083-7.083 7.083 3.176 7.083 7.083-3.176 7.083-7.083 7.083zM24.966 23.188l0.003-0.157c0-4.946-4.023-8.969-8.969-8.969s-8.969 4.025-8.969 8.969l0.003 0.157h-4.613v-13.683h27.158v13.683h-4.613z"></path>
      <path d="M16.943 23.268v-4.562c0-0.521-0.422-0.943-0.943-0.943s-0.943 0.422-0.943 0.943v0 4.954c0 0.26 0.106 0.496 0.277 0.667v0l2.168 2.17c0.17 0.171 0.406 0.277 0.667 0.277s0.496-0.106 0.667-0.277l0-0c0.171-0.171 0.277-0.407 0.277-0.668s-0.106-0.497-0.277-0.668l-1.891-1.891z"></path>
    </symbol>
    <symbol id="edit" viewBox="0 0 32 32">
      <title>edit</title>
      <path d="M19.556 10.667l1.778 1.778-16 16h-1.778v-1.778l16-16zM26.133 0c-0.488 0.007-0.927 0.21-1.244 0.533l-0 0-3.556 3.022 7.111 7.111 3.022-3.556c0.711-0.533 0.711-1.778 0-2.489l-4.089-4.089c-0.317-0.323-0.756-0.526-1.243-0.533h-0.001zM19.556 5.689l-19.556 19.556v6.756h6.756l19.556-19.556-6.578-6.756z"></path>
    </symbol>
    <symbol id="add-goal" viewBox="0 0 32 32">
      <title>add goal</title>
      <path d="M30.75 14.75h-13.5v-13.5c0-0.69-0.56-1.25-1.25-1.25s-1.25 0.56-1.25 1.25v13.5h-13.5c-0.69 0-1.25 0.56-1.25 1.25s0.56 1.25 1.25 1.25h13.5v13.5c0 0.69 0.56 1.25 1.25 1.25s1.25-0.56 1.25-1.25v-13.5h13.5c0.69 0 1.25-0.56 1.25-1.25s-0.56-1.25-1.25-1.25z"></path>
    </symbol>
  </defs>
</svg>
