<svg xmlns="http://www.w3.org/2000/svg" viewBox="0 100 496.49 396.49"><path fill="#fff" d="M189.28 488.73L99.3 328.14 8.53 488.73z"/><path fill="#193651" d="M189.28 496.49H8.53c-3.1 0-5.43-1.56-6.98-3.88s-1.55-5.43 0-7.76l89.99-160.58c3.1-4.66 10.86-4.66 13.19 0l89.98 160.58a7.05 7.05 0 0 1 0 7.76c0 2.32-2.32 3.88-5.43 3.88zM21.72 480.97H176.1L99.3 344.44 21.72 480.97z"/><path fill="#cfd0d1" d="M83.78 401.84l-37.23 66.72h105.5l-38.01-66.72z"/><path fill="#fff" d="M488.73 488.73l-89.99-160.59-90.76 160.59z"/><path fill="#193651" d="M488.73 496.49H307.98a8.15 8.15 0 0 1-6.99-3.88 7.05 7.05 0 0 1 0-7.76l90-160.58c3.1-4.66 10.85-4.66 13.18 0l89.99 160.58a7.05 7.05 0 0 1 0 7.76c0 2.32-2.33 3.88-5.43 3.88zm-167.57-15.52h154.38l-76.8-136.53-77.58 136.53z"/><path fill="#cfd0d1" d="M383.22 401.84l-37.23 66.72h105.5l-38.01-66.72z"/><path fill="#fff" d="M435.98 488.73L267.64 218.76 99.3 488.73z"/><path fill="#193651" d="M435.98 496.49H99.3c-3.1 0-5.43-1.56-6.98-3.88s-1.56-5.43 0-7.76l168.33-269.97a7.97 7.97 0 0 1 13.2 0l168.33 269.97a7.05 7.05 0 0 1 0 7.76c-.77 2.32-3.88 3.88-6.2 3.88zm-322.72-15.52h308.75L267.64 233.5 113.26 480.97z"/><path fill="#e1e6e9" d="M215.66 359.18l-64.39 102.4h231.95l-63.61-102.4-27.92 13.18-24.05-13.18-24.83 13.18z"/><path fill="#193651" d="M267.64 226.52c-4.66 0-7.76-3.1-7.76-7.76V111.71c0-4.66 3.1-7.76 7.76-7.76 4.65 0 7.75 3.1 7.75 7.76v107.05a7.77 7.77 0 0 1-7.75 7.76z"/><path fill="#fff" d="M345.21 167.56h-77.57v-55.85h77.57l-19.39 27.93z"/><path fill="#193651" d="M345.99 175.32c-.78 0-.78 0 0 0h-78.35c-4.66 0-7.76-3.1-7.76-7.76v-55.85c0-4.66 3.1-7.76 7.76-7.76h78.35c3.1 0 5.43 1.55 6.98 3.88 1.55 2.33.78 5.43-.78 7.76l-16.29 23.27 15.52 22.5a7.04 7.04 0 0 1 2.32 5.43c0 5.43-3.87 8.53-7.75 8.53zm-70.6-15.51h55.86l-10.86-15.52a8.4 8.4 0 0 1 0-8.53l10.86-15.52h-55.86v39.57z"/><g fill="#2ea2db"><path d="M157.48 248.24c-3.1 0-6.2.78-9.31 2.33-3.1-6.2-9.3-10.09-17.07-10.86a26.19 26.19 0 0 0-24.82-17.07c-13.96 0-25.6 10.86-26.38 25.6h-.77a20.86 20.86 0 0 0-20.95 20.95c0 11.63 9.31 20.94 20.95 20.94h77.57c11.64 0 20.95-9.3 20.95-20.94.77-11.64-8.53-20.95-20.17-20.95zM474.76 236.6c-3.1 0-6.2.78-9.3 2.33-3.1-6.2-9.31-10.08-17.07-10.86a26.19 26.19 0 0 0-24.83-17.06c-13.96 0-25.6 10.86-26.37 25.6h-.78a20.86 20.86 0 0 0-20.94 20.94c0 11.64 9.3 20.95 20.94 20.95H474c11.63 0 20.94-9.31 20.94-20.95.78-10.86-8.53-20.94-20.17-20.94z"/></g></svg>
